HIERARCHY
ROOT Hips
{
  OFFSET -10.150 5.190 -290.533
  CHANNELS 6 Xposition Yposition Zposition Zrotation Xrotation Yrotation
  JOINT LeftUpLeg
  {
    OFFSET 7.670 -7.441 2.090
    CHANNELS 6 Xposition Yposition Zposition Zrotation Xrotation Yrotation
    JOINT LeftLeg
    {
      OFFSET 0.000 -48.996 0.000
      CHANNELS 6 Xposition Yposition Zposition Zrotation Xrotation Yrotation
      JOINT LeftFoot
      {
        OFFSET -0.000 -39.606 -0.000
        CHANNELS 6 Xposition Yposition Zposition Zrotation Xrotation Yrotation
        End Site
        {
          OFFSET -0.000 -10.662 6.156
        }
      }
    }
  }
  JOINT RightUpLeg
  {
    OFFSET -7.599 -7.499 1.300
    CHANNELS 6 Xposition Yposition Zposition Zrotation Xrotation Yrotation
    JOINT RightLeg
    {
      OFFSET -0.000 -49.318 0.000
      CHANNELS 6 Xposition Yposition Zposition Zrotation Xrotation Yrotation
      JOINT RightFoot
      {
        OFFSET 0.000 -42.095 -0.000
        CHANNELS 6 Xposition Yposition Zposition Zrotation Xrotation Yrotation
        End Site
        {
          OFFSET 0.000 -8.619 4.976
        }
      }
    }
  }
  JOINT Spine
  {
    OFFSET 0.000 6.194 -6.194
    CHANNELS 6 Xposition Yposition Zposition Zrotation Xrotation Yrotation
    JOINT LeftShoulder
    {
      OFFSET -0.000 23.667 0.000
      CHANNELS 6 Xposition Yposition Zposition Zrotation Xrotation Yrotation
      JOINT LeftArm
      {
        OFFSET 18.190 -0.000 -0.000
        CHANNELS 6 Xposition Yposition Zposition Zrotation Xrotation Yrotation
        JOINT LeftForeArm
        {
          OFFSET 27.583 -0.000 0.000
          CHANNELS 6 Xposition Yposition Zposition Zrotation Xrotation Yrotation
          JOINT LeftHand
          {
            OFFSET 27.583 0.000 -0.000
            CHANNELS 6 Xposition Yposition Zposition Zrotation Xrotation Yrotation
            JOINT LeftHandThumb1
            {
            OFFSET 4.970 -0.620 3.390
            CHANNELS 6 Xposition Yposition Zposition Zrotation Xrotation Yrotation
              JOINT LeftHandThumb2
              {
              OFFSET 2.150 -0.000 0.000
              CHANNELS 6 Xposition Yposition Zposition Zrotation Xrotation Yrotation
                JOINT LeftHandThumb3
                {
                OFFSET 2.200 -0.000 0.000
                CHANNELS 6 Xposition Yposition Zposition Zrotation Xrotation Yrotation
                  JOINT LeftHandThumb4
                  {
                  OFFSET 1.700 -0.000 0.000
                  CHANNELS 6 Xposition Yposition Zposition Zrotation Xrotation Yrotation
                  }
                }
              }
            }
            JOINT LeftHandIndex1
            {
            OFFSET 8.730 0.680 2.070
            CHANNELS 6 Xposition Yposition Zposition Zrotation Xrotation Yrotation
              JOINT LeftHandIndex2
              {
              OFFSET 2.670 -0.000 0.000
              CHANNELS 6 Xposition Yposition Zposition Zrotation Xrotation Yrotation
                JOINT LeftHandIndex3
                {
                OFFSET 2.130 -0.000 0.000
                CHANNELS 6 Xposition Yposition Zposition Zrotation Xrotation Yrotation
                  JOINT LeftHandIndex4
                  {
                  OFFSET 1.800 -0.000 0.000
                  CHANNELS 6 Xposition Yposition Zposition Zrotation Xrotation Yrotation
                  }
                }
              }
            }
            JOINT LeftHandMiddle1
            {
            OFFSET 9.220 0.670 0.550
            CHANNELS 6 Xposition Yposition Zposition Zrotation Xrotation Yrotation
              JOINT LeftHandMiddle2
              {
              OFFSET 2.660 -0.000 0.000
              CHANNELS 6 Xposition Yposition Zposition Zrotation Xrotation Yrotation
                JOINT LeftHandMiddle3
                {
                OFFSET 2.280 -0.000 0.000
                CHANNELS 6 Xposition Yposition Zposition Zrotation Xrotation Yrotation
                  JOINT LeftHandMiddle4
                  {
                  OFFSET 1.500 -0.000 0.000
                  CHANNELS 6 Xposition Yposition Zposition Zrotation Xrotation Yrotation
                  }
                }
              }
            }
            JOINT LeftHandRing1
            {
            OFFSET 9.250 0.670 -1.130
            CHANNELS 6 Xposition Yposition Zposition Zrotation Xrotation Yrotation
              JOINT LeftHandRing2
              {
              OFFSET 2.470 -0.000 0.000
              CHANNELS 6 Xposition Yposition Zposition Zrotation Xrotation Yrotation
                JOINT LeftHandRing3
                {
                OFFSET 2.210 -0.000 0.000
                CHANNELS 6 Xposition Yposition Zposition Zrotation Xrotation Yrotation
                  JOINT LeftHandRing4
                  {
                  OFFSET 1.800 -0.000 0.000
                  CHANNELS 6 Xposition Yposition Zposition Zrotation Xrotation Yrotation
                  }
                }
              }
            }
            JOINT LeftHandPinky1
            {
            OFFSET 9.350 0.660 -2.720
            CHANNELS 6 Xposition Yposition Zposition Zrotation Xrotation Yrotation
              JOINT LeftHandPinky2
              {
              OFFSET 1.630 -0.000 0.000
              CHANNELS 6 Xposition Yposition Zposition Zrotation Xrotation Yrotation
                JOINT LeftHandPinky3
                {
                OFFSET 1.710 -0.000 0.000
                CHANNELS 6 Xposition Yposition Zposition Zrotation Xrotation Yrotation
                  JOINT LeftHandPinky4
                  {
                  OFFSET 1.800 -0.000 0.000
                  CHANNELS 6 Xposition Yposition Zposition Zrotation Xrotation Yrotation
                  }
                }
              }
            }
          }
        }
      }
    }
    JOINT RightShoulder
    {
      OFFSET -0.000 23.667 0.000
      CHANNELS 6 Xposition Yposition Zposition Zrotation Xrotation Yrotation
      JOINT RightArm
      {
        OFFSET -17.773 0.000 -0.000
        CHANNELS 6 Xposition Yposition Zposition Zrotation Xrotation Yrotation
        JOINT RightForeArm
        {
          OFFSET -27.963 -0.000 0.000
          CHANNELS 6 Xposition Yposition Zposition Zrotation Xrotation Yrotation
          JOINT RightHand
          {
            OFFSET -27.375 0.000 -0.000
            CHANNELS 6 Xposition Yposition Zposition Zrotation Xrotation Yrotation
            JOINT RightHandThumb1
            {
            OFFSET -4.970 -0.620 3.390
            CHANNELS 6 Xposition Yposition Zposition Zrotation Xrotation Yrotation
              JOINT RightHandThumb2
              {
              OFFSET -2.150 0.000 0.000
              CHANNELS 6 Xposition Yposition Zposition Zrotation Xrotation Yrotation
                JOINT RightHandThumb3
                {
                OFFSET -2.200 0.000 0.000
                CHANNELS 6 Xposition Yposition Zposition Zrotation Xrotation Yrotation
                  JOINT RightHandThumb4
                  {
                  OFFSET -1.700 0.000 0.000
                  CHANNELS 6 Xposition Yposition Zposition Zrotation Xrotation Yrotation
                  }
                }
              }
            }
            JOINT RightHandIndex1
            {
            OFFSET -8.730 0.680 2.070
            CHANNELS 6 Xposition Yposition Zposition Zrotation Xrotation Yrotation
              JOINT RightHandIndex2
              {
              OFFSET -2.670 0.000 0.000
              CHANNELS 6 Xposition Yposition Zposition Zrotation Xrotation Yrotation
                JOINT RightHandIndex3
                {
                OFFSET -2.130 0.000 0.000
                CHANNELS 6 Xposition Yposition Zposition Zrotation Xrotation Yrotation
                  JOINT RightHandIndex4
                  {
                  OFFSET -1.800 0.000 0.000
                  CHANNELS 6 Xposition Yposition Zposition Zrotation Xrotation Yrotation
                  }
                }
              }
            }
            JOINT RightHandMiddle1
            {
            OFFSET -9.220 0.670 0.550
            CHANNELS 6 Xposition Yposition Zposition Zrotation Xrotation Yrotation
              JOINT RightHandMiddle2
              {
              OFFSET -2.660 0.000 0.000
              CHANNELS 6 Xposition Yposition Zposition Zrotation Xrotation Yrotation
                JOINT RightHandMiddle3
                {
                OFFSET -2.280 0.000 0.000
                CHANNELS 6 Xposition Yposition Zposition Zrotation Xrotation Yrotation
                  JOINT RightHandMiddle4
                  {
                  OFFSET -1.500 0.000 0.000
                  CHANNELS 6 Xposition Yposition Zposition Zrotation Xrotation Yrotation
                  }
                }
              }
            }
            JOINT RightHandRing1
            {
            OFFSET -9.250 0.670 -1.130
            CHANNELS 6 Xposition Yposition Zposition Zrotation Xrotation Yrotation
              JOINT RightHandRing2
              {
              OFFSET -2.470 0.000 0.000
              CHANNELS 6 Xposition Yposition Zposition Zrotation Xrotation Yrotation
                JOINT RightHandRing3
                {
                OFFSET -2.210 0.000 0.000
                CHANNELS 6 Xposition Yposition Zposition Zrotation Xrotation Yrotation
                  JOINT RightHandRing4
                  {
                  OFFSET -1.800 0.000 0.000
                  CHANNELS 6 Xposition Yposition Zposition Zrotation Xrotation Yrotation
                  }
                }
              }
            }
            JOINT RightHandPinky1
            {
            OFFSET -9.350 0.660 -2.720
            CHANNELS 6 Xposition Yposition Zposition Zrotation Xrotation Yrotation
              JOINT RightHandPinky2
              {
              OFFSET -1.630 0.000 0.000
              CHANNELS 6 Xposition Yposition Zposition Zrotation Xrotation Yrotation
                JOINT RightHandPinky3
                {
                OFFSET -1.710 0.000 0.000
                CHANNELS 6 Xposition Yposition Zposition Zrotation Xrotation Yrotation
                  JOINT RightHandPinky4
                  {
                  OFFSET -1.800 0.000 0.000
                  CHANNELS 6 Xposition Yposition Zposition Zrotation Xrotation Yrotation
                  }
                }
              }
            }
          }
        }
      }
    }
    JOINT Neck
    {
      OFFSET -0.000 23.667 0.000
      CHANNELS 6 Xposition Yposition Zposition Zrotation Xrotation Yrotation
      JOINT Head
      {
        OFFSET -0.000 31.945 -0.000
        CHANNELS 6 Xposition Yposition Zposition Zrotation Xrotation Yrotation
        End Site
        {
          OFFSET -0.000 0.128 -0.000
        }
      }
    }
  }
}
MOTION
Frames:	5
Frame Time:	0.0333333
-10.8662 2.43205 -290.902 0.129927 0.00848481 0.0254897 7.87715 -7.58532 2.16722 5.42648 -1.45377 -1.8178 0 -47.36 2.38419e-05 -6.16567 0.562615 0.0607777 0 -38.0033 2.38419e-05 30.1006 9.92948 13.4608 -7.75248 -7.58593 1.63577 -4.84639 -3.69028 -2.26288 -2.98023e-06 -47.3914 -7.15256e-05 6.21956 7.90225 -0.858398 0 -40.9759 0 -3.26998 -4.4541 -2.1379 2.23517e-06 6.26373 -6.26373 0.570097 -5.58408 -0.842613 -4.47035e-06 23.6673 2.38419e-05 7.53748 7.68396e-06 -5.75628 17.7984 5.96046e-06 -4.76837e-05 -87.3013 14.6034 -1.68857 28.4225 0 2.38419e-05 -1.81991e-06 0 -20.2384 28.3609 -1.78814e-05 4.76837e-05 -4.89693 -0.00964772 5.24855 0.0062 0.0497 0.0339 0 0 0 0 0.0215 0 0 0 0 0 0.022 0 0 0 0 0 0.017 0 0 0 0 -0.0068 0.0873 0.0207 0 0 0 0 0.0267 0 0 0 0 0 0.0213 0 0 0 0 0 0.018 0 0 0 0 -0.0067 0.0922 0.0055 0 0 0 0 0.0266 0 0 0 0 0 0.0228 0 0 0 0 0 0.015 0 0 0 0 -0.0067 0.0925 -0.0113 0 0 0 0 0.0247 0 0 0 0 0 0.0221 0 0 0 0 0 0.018 0 0 0 0 -0.0066 0.0935 -0.0272 0 0 0 0 0.0163 0 0 0 0 0 0.0171 0 0 0 0 0 0.018 0 0 0 0 -4.47035e-06 23.6673 2.38419e-05 -10.9657 -4.26887e-07 5.82337 -17.594 5.96046e-06 2.38419e-05 88.2546 17.5249 1.02388 -28.7638 5.96046e-06 -2.38419e-05 6.04202e-06 -6.83019e-06 25.1837 -29.2708 0 -2.38419e-05 8.3742 -0.00491936 -2.69836 -0.0062 0.0497 0.0339 0 0 0 0 0.0215 0 0 0 0 0 0.022 0 0 0 0 0 0.017 0 0 0 0 0.0068 0.0873 0.0207 0 0 0 0 0.0267 0 0 0 0 0 0.0213 0 0 0 0 0 0.018 0 0 0 0 0.0067 0.0922 0.0055 0 0 0 0 0.0266 0 0 0 0 0 0.0228 0 0 0 0 0 0.015 0 0 0 0 0.0067 0.0925 -0.0113 0 0 0 0 0.0247 0 0 0 0 0 0.0221 0 0 0 0 0 0.018 0 0 0 0 0.0066 0.0935 -0.0272 0 0 0 0 0.0163 0 0 0 0 0 0.0171 0 0 0 0 0 0.018 0 0 0 0 -4.47035e-06 23.6673 2.38419e-05 -2.47574 10.4946 0.45121 -2.98023e-06 33.2618 -4.76837e-05 9.90511e-06 -9.8184e-06 5.33609e-08 
-10.8639 2.4315 -290.908 0.132595 -0.013353 0.0308644 7.87585 -7.5846 2.16808 5.41645 -1.45063 -1.84296 2.98023e-06 -47.3363 2.38419e-05 -6.1383 0.636846 0.0684884 -2.23517e-06 -37.9989 2.38419e-05 30.4372 10.7818 13.114 -7.75182 -7.58493 1.62992 -4.83428 -3.672 -2.28508 -2.98023e-06 -47.3966 9.53674e-05 6.18149 7.92234 -0.855258 0 -40.9857 -2.38419e-05 -3.25539 -4.47923 -2.12989 2.23517e-06 6.26327 -6.26333 0.564258 -5.59158 -0.834051 0 23.6673 -4.76837e-05 7.56075 1.02453e-05 -5.78795 17.8069 -1.19209e-05 7.15256e-05 -87.3364 14.6288 -1.68232 28.422 0 0 3.49035e-07 3.41509e-06 -20.2364 28.3677 -1.78814e-05 0 -4.91558 -0.00847806 5.46961 0.0062 0.0497 0.0339 0 0 0 0 0.0215 0 0 0 0 0 0.022 0 0 0 0 0 0.017 0 0 0 0 -0.0068 0.0873 0.0207 0 0 0 0 0.0267 0 0 0 0 0 0.0213 0 0 0 0 0 0.018 0 0 0 0 -0.0067 0.0922 0.0055 0 0 0 0 0.0266 0 0 0 0 0 0.0228 0 0 0 0 0 0.015 0 0 0 0 -0.0067 0.0925 -0.0113 0 0 0 0 0.0247 0 0 0 0 0 0.0221 0 0 0 0 0 0.018 0 0 0 0 -0.0066 0.0935 -0.0272 0 0 0 0 0.0163 0 0 0 0 0 0.0171 0 0 0 0 0 0.018 0 0 0 0 0 23.6673 -4.76837e-05 -10.9699 3.84198e-06 5.86406 -17.5766 0 2.38419e-05 88.2158 17.6006 0.953891 -28.7491 1.19209e-05 7.15256e-05 3.63702e-06 -1.70755e-06 25.2466 -29.2453 -5.96046e-06 2.38419e-05 8.40432 -0.00326824 -2.60876 -0.0062 0.0497 0.0339 0 0 0 0 0.0215 0 0 0 0 0 0.022 0 0 0 0 0 0.017 0 0 0 0 0.0068 0.0873 0.0207 0 0 0 0 0.0267 0 0 0 0 0 0.0213 0 0 0 0 0 0.018 0 0 0 0 0.0067 0.0922 0.0055 0 0 0 0 0.0266 0 0 0 0 0 0.0228 0 0 0 0 0 0.015 0 0 0 0 0.0067 0.0925 -0.0113 0 0 0 0 0.0247 0 0 0 0 0 0.0221 0 0 0 0 0 0.018 0 0 0 0 0.0066 0.0935 -0.0272 0 0 0 0 0.0163 0 0 0 0 0 0.0171 0 0 0 0 0 0.018 0 0 0 0 0 23.6673 -4.76837e-05 -2.46214 10.5255 0.450034 -4.47035e-06 33.2627 7.15256e-05 1.02753e-05 -1.02453e-05 -5.33609e-08 
-10.8639 2.4315 -290.908 0.132595 -0.013353 0.0308644 7.87585 -7.5846 2.16808 5.41645 -1.45063 -1.84296 2.98023e-06 -47.3363 2.38419e-05 -6.1383 0.636846 0.0684884 -2.23517e-06 -37.9989 2.38419e-05 30.4372 10.7818 13.114 -7.75182 -7.58493 1.62992 -4.83428 -3.672 -2.28508 -2.98023e-06 -47.3966 9.53674e-05 6.18149 7.92234 -0.855258 0 -40.9857 -2.38419e-05 -3.25539 -4.47923 -2.12989 2.23517e-06 6.26327 -6.26333 0.564258 -5.59158 -0.834051 0 23.6673 -4.76837e-05 7.56075 1.02453e-05 -5.78795 17.8069 -1.19209e-05 7.15256e-05 -87.3364 14.6288 -1.68232 28.422 0 0 3.49035e-07 3.41509e-06 -20.2364 28.3677 -1.78814e-05 0 -4.91558 -0.00847806 5.46961 0.0062 0.0497 0.0339 0 0 0 0 0.0215 0 0 0 0 0 0.022 0 0 0 0 0 0.017 0 0 0 0 -0.0068 0.0873 0.0207 0 0 0 0 0.0267 0 0 0 0 0 0.0213 0 0 0 0 0 0.018 0 0 0 0 -0.0067 0.0922 0.0055 0 0 0 0 0.0266 0 0 0 0 0 0.0228 0 0 0 0 0 0.015 0 0 0 0 -0.0067 0.0925 -0.0113 0 0 0 0 0.0247 0 0 0 0 0 0.0221 0 0 0 0 0 0.018 0 0 0 0 -0.0066 0.0935 -0.0272 0 0 0 0 0.0163 0 0 0 0 0 0.0171 0 0 0 0 0 0.018 0 0 0 0 0 23.6673 -4.76837e-05 -10.9699 3.84198e-06 5.86406 -17.5766 0 2.38419e-05 88.2158 17.6006 0.953891 -28.7491 1.19209e-05 7.15256e-05 3.63702e-06 -1.70755e-06 25.2466 -29.2453 -5.96046e-06 2.38419e-05 8.40432 -0.00326824 -2.60876 -0.0062 0.0497 0.0339 0 0 0 0 0.0215 0 0 0 0 0 0.022 0 0 0 0 0 0.017 0 0 0 0 0.0068 0.0873 0.0207 0 0 0 0 0.0267 0 0 0 0 0 0.0213 0 0 0 0 0 0.018 0 0 0 0 0.0067 0.0922 0.0055 0 0 0 0 0.0266 0 0 0 0 0 0.0228 0 0 0 0 0 0.015 0 0 0 0 0.0067 0.0925 -0.0113 0 0 0 0 0.0247 0 0 0 0 0 0.0221 0 0 0 0 0 0.018 0 0 0 0 0.0066 0.0935 -0.0272 0 0 0 0 0.0163 0 0 0 0 0 0.0171 0 0 0 0 0 0.018 0 0 0 0 0 23.6673 -4.76837e-05 -2.46214 10.5255 0.450034 -4.47035e-06 33.2627 7.15256e-05 1.02753e-05 -1.02453e-05 -5.33609e-08 
-10.8648 2.42619 -290.915 0.129665 -0.0247287 -0.00839505 7.87526 -7.5802 2.16768 5.43292 -1.45012 -1.84521 -1.49012e-06 -47.3093 0 -6.16024 0.757582 0.0817662 -7.45058e-07 -38.0232 -2.38419e-05 30.7749 11.6173 12.759 -7.74848 -7.58331 1.62899 -4.81168 -3.65814 -2.28544 -2.98023e-06 -47.4193 0 6.14165 7.92043 -0.849501 2.98023e-06 -40.9712 0 -3.23852 -4.51558 -2.12095 1.49012e-06 6.26422 -6.26423 0.57302 -5.60973 -0.836365 -2.98023e-06 23.6673 -4.76837e-05 7.54344 8.11085e-06 -5.8504 17.8017 -1.19209e-05 0 -87.3244 14.6395 -1.59979 28.4028 0 4.76837e-05 1.46674e-06 -3.41509e-06 -20.3184 28.3994 0 -4.76837e-05 -4.93758 -0.00735451 5.68488 0.0062 0.0497 0.0339 0 0 0 0 0.0215 0 0 0 0 0 0.022 0 0 0 0 0 0.017 0 0 0 0 -0.0068 0.0873 0.0207 0 0 0 0 0.0267 0 0 0 0 0 0.0213 0 0 0 0 0 0.018 0 0 0 0 -0.0067 0.0922 0.0055 0 0 0 0 0.0266 0 0 0 0 0 0.0228 0 0 0 0 0 0.015 0 0 0 0 -0.0067 0.0925 -0.0113 0 0 0 0 0.0247 0 0 0 0 0 0.0221 0 0 0 0 0 0.018 0 0 0 0 -0.0066 0.0935 -0.0272 0 0 0 0 0.0163 0 0 0 0 0 0.0171 0 0 0 0 0 0.018 0 0 0 0 -2.98023e-06 23.6673 -4.76837e-05 -10.9871 2.13443e-06 5.93208 -17.5574 5.96046e-06 -2.38419e-05 88.1808 17.7 0.914086 -28.7133 0 9.53674e-05 1.75008e-06 -1.70755e-06 25.2676 -29.2368 -1.19209e-05 -2.38419e-05 8.46563 -0.00135582 -2.49266 -0.0062 0.0497 0.0339 0 0 0 0 0.0215 0 0 0 0 0 0.022 0 0 0 0 0 0.017 0 0 0 0 0.0068 0.0873 0.0207 0 0 0 0 0.0267 0 0 0 0 0 0.0213 0 0 0 0 0 0.018 0 0 0 0 0.0067 0.0922 0.0055 0 0 0 0 0.0266 0 0 0 0 0 0.0228 0 0 0 0 0 0.015 0 0 0 0 0.0067 0.0925 -0.0113 0 0 0 0 0.0247 0 0 0 0 0 0.0221 0 0 0 0 0 0.018 0 0 0 0 0.0066 0.0935 -0.0272 0 0 0 0 0.0163 0 0 0 0 0 0.0171 0 0 0 0 0 0.018 0 0 0 0 -2.98023e-06 23.6673 -4.76837e-05 -2.45051 10.5415 0.448581 -4.47035e-06 33.2607 -2.38419e-05 1.00152e-05 -9.8184e-06 -5.33609e-08 
-10.8651 2.42338 -290.919 0.135882 -0.0358346 -0.0523001 7.87461 -7.57878 2.16436 5.43788 -1.44421 -1.82848 0 -47.2963 2.38419e-05 -6.17969 0.824258 0.0892446 -7.45058e-07 -38.0394 2.38419e-05 30.9669 12.0897 12.549 -7.7465 -7.58121 1.63052 -4.81868 -3.67393 -2.26996 2.98023e-06 -47.3862 0 6.13431 7.96014 -0.852703 0 -40.9892 -2.38419e-05 -3.217 -4.52643 -2.1076 2.23517e-06 6.26458 -6.26462 0.577243 -5.62018 -0.832404 -4.47035e-06 23.6673 0 7.55274 1.06722e-05 -5.86357 17.8018 0 0 -87.3453 14.6334 -1.55833 28.4006 5.96046e-06 0 -4.27634e-06 -1.70755e-06 -20.36 28.4175 3.57628e-05 -4.76837e-05 -4.95542 -0.00666124 5.82383 0.0062 0.0497 0.0339 0 0 0 0 0.0215 0 0 0 0 0 0.022 0 0 0 0 0 0.017 0 0 0 0 -0.0068 0.0873 0.0207 0 0 0 0 0.0267 0 0 0 0 0 0.0213 0 0 0 0 0 0.018 0 0 0 0 -0.0067 0.0922 0.0055 0 0 0 0 0.0266 0 0 0 0 0 0.0228 0 0 0 0 0 0.015 0 0 0 0 -0.0067 0.0925 -0.0113 0 0 0 0 0.0247 0 0 0 0 0 0.0221 0 0 0 0 0 0.018 0 0 0 0 -0.0066 0.0935 -0.0272 0 0 0 0 0.0163 0 0 0 0 0 0.0171 0 0 0 0 0 0.018 0 0 0 0 -4.47035e-06 23.6673 0 -11.0058 2.13443e-06 5.95073 -17.5419 0 -2.38419e-05 88.1491 17.8249 0.910807 -28.6945 1.19209e-05 2.38419e-05 -4.02829e-06 8.53773e-06 25.2589 -29.2104 1.19209e-05 -7.15256e-05 8.49469 7.00117e-05 -2.40068 -0.0062 0.0497 0.0339 0 0 0 0 0.0215 0 0 0 0 0 0.022 0 0 0 0 0 0.017 0 0 0 0 0.0068 0.0873 0.0207 0 0 0 0 0.0267 0 0 0 0 0 0.0213 0 0 0 0 0 0.018 0 0 0 0 0.0067 0.0922 0.0055 0 0 0 0 0.0266 0 0 0 0 0 0.0228 0 0 0 0 0 0.015 0 0 0 0 0.0067 0.0925 -0.0113 0 0 0 0 0.0247 0 0 0 0 0 0.0221 0 0 0 0 0 0.018 0 0 0 0 0.0066 0.0935 -0.0272 0 0 0 0 0.0163 0 0 0 0 0 0.0171 0 0 0 0 0 0.018 0 0 0 0 -4.47035e-06 23.6673 0 -2.44865 10.5535 0.448742 -4.47035e-06 33.262 0 9.94513e-06 -9.8184e-06 2.13443e-07 
